<svg width="512" height="512" viewBox="0 0 512 512" xmlns="http://www.w3.org/2000/svg"><mask id="satori_om-id"><rect x="0" y="0" width="512" height="512" fill="#fff"/></mask><path x="0" y="0" width="512" height="512" fill="#D0342A" d="M112,0 h288 a112,112 0 0 1 112,112 v288 a112,112 0 0 1 -112,112 h-288 a112,112 0 0 1 -112,-112 v-288 a112,112 0 0 1 112,-112"/><g  ><path fill="#ffffff" d="M205.2 360.9L205.2 360.9Q178.0 360.9 157.8 352.7Q137.5 344.5 126.3 327.8Q115.0 311.1 114.5 285.9L114.5 285.9L164.2 285.9Q164.9 296.5 170.0 303.7Q175.0 310.8 183.9 314.4Q192.8 318.0 204.6 318.0L204.6 318.0Q215.3 318.0 223.1 315.1Q230.9 312.2 235.0 306.9Q239.2 301.6 239.2 294.6L239.2 294.6Q239.2 288.3 235.3 283.9Q231.4 279.5 223.7 276.1Q215.9 272.7 203.9 270.1L203.9 270.1L180.8 264.7Q152.5 258.2 136.4 243.6Q120.3 228.9 120.3 204.3L120.3 204.3Q120.3 184.1 131.2 168.9Q142.2 153.7 161.3 145.2Q180.5 136.8 205.2 136.8L205.2 136.8Q230.6 136.8 249.2 145.4Q267.8 153.9 278.0 169.3Q288.3 184.6 288.6 204.8L288.6 204.8L238.9 204.8Q237.9 192.9 229.2 186.3Q220.6 179.7 205.1 179.7L205.1 179.7Q194.8 179.7 187.8 182.4Q180.8 185.1 177.2 189.9Q173.7 194.7 173.7 200.8L173.7 200.8Q173.7 207.6 177.7 212.2Q181.6 216.8 189.0 219.9Q196.3 222.9 206.0 225.1L206.0 225.1L224.8 229.5Q240.7 232.9 253.0 238.7Q265.4 244.5 274.0 252.5Q282.6 260.6 287.0 271.1Q291.5 281.7 291.5 294.7L291.5 294.7Q291.5 315.4 281.2 330.2Q270.8 345.1 251.6 353.0Q232.3 360.9 205.2 360.9ZM354.9 361.1L354.9 361.1Q343.2 361.1 335.2 353.2Q327.2 345.4 327.2 333.8L327.2 333.8Q327.2 322.1 335.2 314.3Q343.2 306.4 354.9 306.4L354.9 306.4Q366.6 306.4 374.6 314.3Q382.6 322.1 382.6 333.8L382.6 333.8Q382.6 345.4 374.6 353.2Q366.6 361.1 354.9 361.1Z "/></g></svg>